<svg xmlns="http://www.w3.org/2000/svg" width="374" height="58" viewBox="0 0 374 58" fill="none">
  <path d="M-4 23.146C-4 23.146 35.6107 8.63331 62 8.64604C109.178 8.66881 127.662 66.3116 173.5 55.146C194.396 50.056 205.374 42.3768 221.5 28.146C227.609 22.7551 232.308 20.1324 236.5 13.1461C238 10.6461 238.817 9.28288 238.5 6.64604C238.27 4.7367 237.513 3.33373 236 2.14604C234.004 0.578353 231.904 0.830781 229.5 1.64603C226.872 2.53732 224 6.64604 224 6.64604C224 6.64604 221.803 2.53519 220 1.64603C218.599 0.955124 214.613 0.934885 213 2.646C211.765 3.95609 210.744 5.86204 211 8.64602C211.268 11.5627 215.5 17.146 215.5 17.146C215.5 17.146 224.352 29.7075 232.5 34.646C241.01 39.8037 247.05 41.4938 257 41.646C278.5 41.9751 287.361 29.2155 297.5 24.146C336.5 4.646 357.885 19.7223 373 21.646" stroke="#99762C"/>
</svg>